# xmcd CD database file
# Copyright (C) 1996 Ti Kan
#
# Track frame offsets:
# 	150
# 	14950
# 	34175
# 	54212
# 	72487
# 	89100
# 	106312
# 	119387
# 	131087
# 	148375
# 	160462
#
# Disc length: 2323 seconds
#
# Revision: 1
# Processed by: cddbd v1.4b41PL1 Copyright (c) Steve Scherf et al.
# Submitted via: DiscPlay 3.4.1
#
DISCID=ad09110b
DTITLE=Mostly Robinson - Roll Down The Highway
DYEAR=1900
DGENRE=
TTITLE0=Roll down the highway
TTITLE1=Together again
TTITLE2=Lets do it over again
TTITLE3=Working man's woman
TTITLE4=Your cheatin' heart
TTITLE5=Keep the fire burning
TTITLE6=Ain't gonna worry my mind
TTITLE7=Rock'n Roll Shoes
TTITLE8=Here we go again
TTITLE9=Friendship
TTITLE10=Only one glass
EXTD=
EXTT0=
EXTT1=
EXTT2=
EXTT3=
EXTT4=
EXTT5=
EXTT6=
EXTT7=
EXTT8=
EXTT9=
EXTT10=
PLAYORDER=
